{
	"asset":{
		"generator":"Khronos glTF Blender I/O v4.4.56",
		"version":"2.0"
	},
	"scene":0,
	"scenes":[
		{
			"name":"Scene",
			"nodes":[
				0,
				1
			]
		}
	],
	"nodes":[
		{
			"mesh":0,
			"name":"Body",
			"rotation":[
				0,
				1,
				0,
				0
			],
			"scale":[
				1,
				1,
				0.11402449756860733
			],
			"translation":[
				0.29230254888534546,
				0.46684619784355164,
				-0.09024343639612198
			]
		},
		{
			"mesh":1,
			"name":"screen",
			"rotation":[
				0,
				1,
				0,
				0
			],
			"scale":[
				1,
				1,
				0.11402449756860733
			],
			"translation":[
				0.29230254888534546,
				0.46684619784355164,
				-0.09024343639612198
			]
		}
	],
	"materials":[
		{
			"doubleSided":true,
			"name":"Material.001",
			"pbrMetallicRoughness":{
				"baseColorTexture":{
					"index":0
				},
				"metallicFactor":0,
				"roughnessFactor":0
			}
		},
		{
			"doubleSided":true,
			"name":"Silver",
			"pbrMetallicRoughness":{
				"baseColorFactor":[
					0.527114987373352,
					0.527114987373352,
					0.527114987373352,
					1
				],
				"metallicFactor":0.8335859775543213,
				"roughnessFactor":0
			}
		},
		{
			"alphaMode":"BLEND",
			"doubleSided":true,
			"name":"Material.004",
			"pbrMetallicRoughness":{
				"baseColorFactor":[
					0.018841400742530823,
					0.01747330091893673,
					0.01747330091893673,
					0.7607489824295044
				],
				"metallicFactor":0,
				"roughnessFactor":0.5
			}
		},
		{
			"doubleSided":true,
			"name":"Flash",
			"pbrMetallicRoughness":{
				"baseColorFactor":[
					0.5524160265922546,
					0.6376670002937317,
					0.27518099546432495,
					1
				],
				"metallicFactor":0.2690950036048889,
				"roughnessFactor":0
			}
		},
		{
			"doubleSided":true,
			"name":"Lens",
			"pbrMetallicRoughness":{
				"baseColorFactor":[
					0.41726601123809814,
					0.23914200067520142,
					0.5213800072669983,
					1
				],
				"roughnessFactor":0
			}
		},
		{
			"doubleSided":true,
			"name":"Screen",
			"pbrMetallicRoughness":{
				"baseColorFactor":[
					0.31218257546424866,
					0.6948529481887817,
					0.9702871441841125,
					1
				],
				"metallicFactor":0,
				"roughnessFactor":0
			}
		}
	],
	"meshes":[
		{
			"name":"Object_0",
			"primitives":[
				{
					"attributes":{
						"POSITION":0,
						"NORMAL":1,
						"TEXCOORD_0":2
					},
					"indices":3,
					"material":0
				},
				{
					"attributes":{
						"POSITION":4,
						"NORMAL":5,
						"TEXCOORD_0":6
					},
					"indices":7,
					"material":1
				},
				{
					"attributes":{
						"POSITION":8,
						"NORMAL":9,
						"TEXCOORD_0":10
					},
					"indices":11,
					"material":2
				},
				{
					"attributes":{
						"POSITION":12,
						"NORMAL":13,
						"TEXCOORD_0":14
					},
					"indices":15,
					"material":3
				},
				{
					"attributes":{
						"POSITION":16,
						"NORMAL":17,
						"TEXCOORD_0":18
					},
					"indices":19,
					"material":4
				},
				{
					"attributes":{
						"POSITION":20,
						"NORMAL":21,
						"TEXCOORD_0":22
					},
					"indices":23,
					"material":5
				}
			]
		},
		{
			"name":"Object_0.001",
			"primitives":[
				{
					"attributes":{
						"POSITION":24,
						"NORMAL":25,
						"TEXCOORD_0":26
					},
					"indices":27,
					"material":5
				}
			]
		}
	],
	"textures":[
		{
			"sampler":0,
			"source":0
		}
	],
	"images":[
		{
			"mimeType":"image/png",
			"name":"BackCover_Glass_baseColor",
			"uri":"Textures/BackCover_Glass_baseColor.png"
		}
	],
	"accessors":[
		{
			"bufferView":0,
			"componentType":5126,
			"count":3984,
			"max":[
				1.3597970008850098,
				1.6685516834259033,
				0.40717944502830505
			],
			"min":[
				-0.8209342956542969,
				-2.6570792198181152,
				-1.9297586679458618
			],
			"type":"VEC3"
		},
		{
			"bufferView":1,
			"componentType":5126,
			"count":3984,
			"type":"VEC3"
		},
		{
			"bufferView":2,
			"componentType":5126,
			"count":3984,
			"type":"VEC2"
		},
		{
			"bufferView":3,
			"componentType":5123,
			"count":6969,
			"type":"SCALAR"
		},
		{
			"bufferView":4,
			"componentType":5126,
			"count":2060,
			"max":[
				1.3597970008850098,
				1.5154929161071777,
				0.947722852230072
			],
			"min":[
				-0.8016102313995361,
				0.11366893351078033,
				-1.7914389371871948
			],
			"type":"VEC3"
		},
		{
			"bufferView":5,
			"componentType":5126,
			"count":2060,
			"type":"VEC3"
		},
		{
			"bufferView":6,
			"componentType":5126,
			"count":2060,
			"type":"VEC2"
		},
		{
			"bufferView":7,
			"componentType":5123,
			"count":3876,
			"type":"SCALAR"
		},
		{
			"bufferView":8,
			"componentType":5126,
			"count":1018,
			"max":[
				0.18945357203483582,
				1.4830822944641113,
				0.9447287917137146
			],
			"min":[
				-0.5559738874435425,
				0.1439843326807022,
				0.5570150017738342
			],
			"type":"VEC3"
		},
		{
			"bufferView":9,
			"componentType":5126,
			"count":1018,
			"type":"VEC3"
		},
		{
			"bufferView":10,
			"componentType":5126,
			"count":1018,
			"type":"VEC2"
		},
		{
			"bufferView":11,
			"componentType":5123,
			"count":1860,
			"type":"SCALAR"
		},
		{
			"bufferView":12,
			"componentType":5126,
			"count":441,
			"max":[
				0.1207689717411995,
				1.1106908321380615,
				0.6555964350700378
			],
			"min":[
				0.02024552971124649,
				1.0091826915740967,
				0.4214411675930023
			],
			"type":"VEC3"
		},
		{
			"bufferView":13,
			"componentType":5126,
			"count":441,
			"type":"VEC3"
		},
		{
			"bufferView":14,
			"componentType":5126,
			"count":441,
			"type":"VEC2"
		},
		{
			"bufferView":15,
			"componentType":5123,
			"count":441,
			"type":"SCALAR"
		},
		{
			"bufferView":16,
			"componentType":5126,
			"count":184,
			"max":[
				0.10755039006471634,
				1.3642081022262573,
				0.8976135849952698
			],
			"min":[
				-0.4514399766921997,
				0.2590491771697998,
				0.17238923907279968
			],
			"type":"VEC3"
		},
		{
			"bufferView":17,
			"componentType":5126,
			"count":184,
			"type":"VEC3"
		},
		{
			"bufferView":18,
			"componentType":5126,
			"count":184,
			"type":"VEC2"
		},
		{
			"bufferView":19,
			"componentType":5123,
			"count":1035,
			"type":"SCALAR"
		},
		{
			"bufferView":20,
			"componentType":5126,
			"count":1312,
			"max":[
				0.1283169537782669,
				1.403833270072937,
				0.6301423907279968
			],
			"min":[
				-0.4828396439552307,
				0.22768165171146393,
				-0.2132788598537445
			],
			"type":"VEC3"
		},
		{
			"bufferView":21,
			"componentType":5126,
			"count":1312,
			"type":"VEC3"
		},
		{
			"bufferView":22,
			"componentType":5126,
			"count":1312,
			"type":"VEC2"
		},
		{
			"bufferView":23,
			"componentType":5123,
			"count":2256,
			"type":"SCALAR"
		},
		{
			"bufferView":24,
			"componentType":5126,
			"count":24,
			"max":[
				1.2887167930603027,
				1.636523962020874,
				-1.7914390563964844
			],
			"min":[
				-0.7128622531890869,
				-2.616157054901123,
				-1.9231864213943481
			],
			"type":"VEC3"
		},
		{
			"bufferView":25,
			"componentType":5126,
			"count":24,
			"type":"VEC3"
		},
		{
			"bufferView":26,
			"componentType":5126,
			"count":24,
			"type":"VEC2"
		},
		{
			"bufferView":27,
			"componentType":5123,
			"count":36,
			"type":"SCALAR"
		}
	],
	"bufferViews":[
		{
			"buffer":0,
			"byteLength":47808,
			"byteOffset":0,
			"target":34962
		},
		{
			"buffer":0,
			"byteLength":47808,
			"byteOffset":47808,
			"target":34962
		},
		{
			"buffer":0,
			"byteLength":31872,
			"byteOffset":95616,
			"target":34962
		},
		{
			"buffer":0,
			"byteLength":13938,
			"byteOffset":127488,
			"target":34963
		},
		{
			"buffer":0,
			"byteLength":24720,
			"byteOffset":141428,
			"target":34962
		},
		{
			"buffer":0,
			"byteLength":24720,
			"byteOffset":166148,
			"target":34962
		},
		{
			"buffer":0,
			"byteLength":16480,
			"byteOffset":190868,
			"target":34962
		},
		{
			"buffer":0,
			"byteLength":7752,
			"byteOffset":207348,
			"target":34963
		},
		{
			"buffer":0,
			"byteLength":12216,
			"byteOffset":215100,
			"target":34962
		},
		{
			"buffer":0,
			"byteLength":12216,
			"byteOffset":227316,
			"target":34962
		},
		{
			"buffer":0,
			"byteLength":8144,
			"byteOffset":239532,
			"target":34962
		},
		{
			"buffer":0,
			"byteLength":3720,
			"byteOffset":247676,
			"target":34963
		},
		{
			"buffer":0,
			"byteLength":5292,
			"byteOffset":251396,
			"target":34962
		},
		{
			"buffer":0,
			"byteLength":5292,
			"byteOffset":256688,
			"target":34962
		},
		{
			"buffer":0,
			"byteLength":3528,
			"byteOffset":261980,
			"target":34962
		},
		{
			"buffer":0,
			"byteLength":882,
			"byteOffset":265508,
			"target":34963
		},
		{
			"buffer":0,
			"byteLength":2208,
			"byteOffset":266392,
			"target":34962
		},
		{
			"buffer":0,
			"byteLength":2208,
			"byteOffset":268600,
			"target":34962
		},
		{
			"buffer":0,
			"byteLength":1472,
			"byteOffset":270808,
			"target":34962
		},
		{
			"buffer":0,
			"byteLength":2070,
			"byteOffset":272280,
			"target":34963
		},
		{
			"buffer":0,
			"byteLength":15744,
			"byteOffset":274352,
			"target":34962
		},
		{
			"buffer":0,
			"byteLength":15744,
			"byteOffset":290096,
			"target":34962
		},
		{
			"buffer":0,
			"byteLength":10496,
			"byteOffset":305840,
			"target":34962
		},
		{
			"buffer":0,
			"byteLength":4512,
			"byteOffset":316336,
			"target":34963
		},
		{
			"buffer":0,
			"byteLength":288,
			"byteOffset":320848,
			"target":34962
		},
		{
			"buffer":0,
			"byteLength":288,
			"byteOffset":321136,
			"target":34962
		},
		{
			"buffer":0,
			"byteLength":192,
			"byteOffset":321424,
			"target":34962
		},
		{
			"buffer":0,
			"byteLength":72,
			"byteOffset":321616,
			"target":34963
		}
	],
	"samplers":[
		{
			"magFilter":9729,
			"minFilter":9987
		}
	],
	"buffers":[
		{
			"byteLength":321688,
			"uri":"s24.bin"
		}
	]
}
